<?xml version="1.0" encoding="utf-8"?>
<!-- Generator: Adobe Illustrator 24.2.0, SVG Export Plug-In . SVG Version: 6.00 Build 0)  -->
<svg version="1.1" id="Layer_1" xmlns="http://www.w3.org/2000/svg" xmlns:xlink="http://www.w3.org/1999/xlink" x="0px" y="0px"
	 viewBox="0 0 911.6 461.4" style="enable-background:new 0 0 911.6 461.4;" xml:space="preserve">
<style type="text/css">
	.st0{fill:none;}
	.st1{fill:#FFE225;}
	.st2{fill:#549C98;}
	.st3{fill:#E68368;}
	.st4{fill:#3C4376;}
</style>
<text transform="matrix(1 0 0 1 310.7074 -205.7513)" style="font-family:'PPObjectSans-HeavySlanted'; font-size:100.5294px; letter-spacing:-2;">Peta’s</text>
<text transform="matrix(1 0 0 1 299.1849 -152.4974)" style="font-family:'PPObjectSans-Slanted'; font-size:62.6068px; letter-spacing:-1;">Party Plan</text>
<g>
	<g>
		<path d="M225.1,257.1l23.2-153.5c0.6-3.8,3.8-6.6,7.6-6.6h71c43.9,0,67.7,23.8,62.3,60.4c-5.4,36.1-36.3,59.5-80.2,59.5h-28.5
			l-6.5,42.5c-0.6,3.8-3.8,6.5-7.6,6.5h-33.5C228,266,224.4,261.8,225.1,257.1z M285.6,181h22.6c17,0,29.3-9.7,31.6-24.5
			c2.4-14.2-7.1-23.6-23.6-23.6h-23.1L285.6,181z"/>
		<path d="M382.1,204.1c5.7-38.5,37.5-63,76.9-63c40.1,0,62.5,25.2,56.6,64.4c-0.1,1.5-0.4,3.5-0.8,5.5c-0.7,3.6-3.9,6.3-7.6,6.3
			h-82c0.7,13.2,8,21.2,21,21.2c9.2,0,16.5-4,21.4-10c1.8-2.1,4.6-3.1,7.3-2.5l21.7,4.3c5.6,1.1,8.1,7.6,4.7,12.2
			C489,259.2,465.9,269,440.1,269C400,269,376.2,243.6,382.1,204.1z M473.4,193.3c0.9-12-6.4-21.7-18.9-21.7
			c-12,0-21.7,8.7-26.2,22.2L473.4,193.3z"/>
		<path d="M529.5,221.8l7.3-46.2h-6.7c-4.7,0-8.3-4.2-7.6-8.8l2.3-16c0.5-3.8,3.8-6.6,7.6-6.6H543l11.9-32.9c1.1-3.1,4-5.1,7.2-5.1
			h20c4.7,0,8.3,4.2,7.6,8.9l-4.5,29.1h16.5c4.7,0,8.3,4.2,7.6,8.8l-2.4,16c-0.6,3.8-3.8,6.6-7.6,6.6h-18.9l-7.1,44.6
			c-1.4,9.4,3.3,15.6,11.8,15.6c0.8,0,1.6,0,2.5-0.1c4.9-0.4,8.8,3.9,8.1,8.7l-2.1,15.4c-0.4,3.1-2.7,5.7-5.8,6.4
			c-7.3,1.8-15.7,2.8-21.6,2.8C539.9,269,525.5,249.9,529.5,221.8z"/>
		<path d="M605,204.6c5.9-38.5,30.9-63.5,62.5-63.5c17.7,0,27.6,8.3,34,21.7l2.6-0.2l1.8-11.9c0.6-3.8,3.8-6.5,7.6-6.5h28.1
			c4.7,0,8.3,4.2,7.6,8.9l-16.1,106.3c-0.6,3.8-3.8,6.6-7.6,6.6h-28.1c-4.7,0-8.3-4.2-7.6-8.8l1.3-9.1l-2.1,0.2
			C678.4,262,666.1,269,649.2,269C616.6,269,599.1,244,605,204.6z M697.5,204.6c2.6-15.3-5.7-26.4-19.8-26.4
			c-14.4,0-26.4,11.6-28.8,27.4c-2.6,15.3,5.7,26.4,19.6,26.4C682.7,232,695.2,220.4,697.5,204.6z"/>
		<path d="M768.3,172.1L768.3,172.1c-4.3-1.8-6.1-7-3.7-11l15.1-25.8c-11.1-2.4-17.5-11.6-15.8-23.8c2.1-13.7,13.7-23.4,27.6-23.4
			c14.4,0,23.4,10.1,21.2,24.3c-0.9,5.9-3.8,12.3-8.7,19.3l-26.4,37.7C775.4,172.3,771.6,173.5,768.3,172.1z"/>
		<path d="M795.9,225.9l22.6,0.1c3.5,0,6.7,2.3,7.4,5.7c1.5,6.9,8.5,11.3,19.5,11.3c10.4,0,18.6-4.7,19.6-12.3
			c1.7-8.5-8.5-9.7-20.8-10.9c-21.5-2.1-53.3-4.2-48.4-38c4-25.7,28.8-41.5,63-41.5c29.6,0,50.7,12.5,52.6,32.6
			c0.4,4.5-3.3,8.4-7.8,8.3l-24.2-0.3c-3.4,0-6.5-2.1-7.5-5.3c-1.7-5.5-7.7-8.7-16.2-8.7c-10.1,0-18.2,4.7-19.1,11.6
			c-1.4,9,12.5,9.2,28.3,11.1c21.7,2.4,48.6,7.8,44.1,37c-4,26.9-30,43.2-67.9,43.2c-32.6,0-52.2-13.6-53.1-36
			C788,229.6,791.5,225.9,795.9,225.9z"/>
	</g>
	<g>
		<path d="M199.2,411.2l18.2-103.6h40.6c22.3,0,35.1,12.3,31.6,32.5c-3.7,19.1-20.3,31-42,31h-28.4l-7.1,40.1H199.2z M221.2,359.1
			h27.5c15.1,0,25.7-8.1,27.9-20.7c2.1-11.6-5.3-19.1-20-19.1h-28.4L221.2,359.1z"/>
		<path d="M289.2,373.2c4-22.8,22.3-39.2,43.9-39.2c12.6,0,20.6,6,25.4,15.4l1.6-0.4l2.2-12h12l-13.1,74.2h-12l2.2-12.2l-1.2,0.4
			c-8.2,9.4-17.9,14.7-29.7,14.7C298.2,414.1,285.1,396.8,289.2,373.2z M355.8,373.2c3.1-16.5-6-28.2-21.5-28.2
			c-16.2,0-30.3,12.5-33.4,29.8c-2.9,16.3,6,28.2,21.6,28.2C338.6,403.1,352.9,390.4,355.8,373.2z"/>
		<path d="M380.2,411.2l12.9-74.2h11.8l-1.9,10l1.5-0.3c4.4-6.8,13.1-11.2,21-11.2c3.7,0,7.1,1,9,2.2l-1.2,10.9
			c-3.7-1.6-7.8-2.1-10.1-2.1c-11.5,0-21.3,10.4-24,25.1l-6.9,39.5H380.2z"/>
		<path d="M443.7,391.6l7.9-45h-11.9l1.6-9.7h11.9l6.9-24h9.6l-4.4,24h18.8l-1.6,9.7h-18.8l-7.9,45.3c-1.5,7.2,1.8,11.8,8.4,11.8
			c2.6,0,6.5-0.6,9.4-1.5l-1.2,10c-3.5,1.2-8.4,1.8-11.6,1.8C447.9,413.9,441.3,404.8,443.7,391.6z"/>
		<path d="M477.2,441.6l1.5-10.4c2.9,1.3,6.3,2.1,9,2.1c11.3,0,16.5-12.2,22.8-22.5l-19.5-73.8h12.3l15,58h1.3l31.9-58h13.2
			L522,412.8c-9.4,16.5-17.5,31.3-32.9,31.3C485,444.1,480.4,443,477.2,441.6z"/>
		<path d="M596.1,411.2l18.2-103.6h40.6c22.3,0,35.1,12.3,31.6,32.5c-3.7,19.1-20.3,31-42,31H616l-7.1,40.1H596.1z M618.1,359.1
			h27.5c15.1,0,25.7-8.1,27.9-20.7c2.1-11.6-5.3-19.1-20-19.1h-28.4L618.1,359.1z"/>
		<path d="M687.4,411.2l19-108h12.2l-19.1,108H687.4z"/>
		<path d="M721.1,373.2c4-22.8,22.3-39.2,43.9-39.2c12.6,0,20.6,6,25.4,15.4l1.6-0.4l2.2-12h12l-13.1,74.2h-12l2.2-12.2l-1.2,0.4
			c-8.2,9.4-17.9,14.7-29.7,14.7C730.1,414.1,717,396.8,721.1,373.2z M787.7,373.2c3.1-16.5-6-28.2-21.5-28.2
			c-16.2,0-30.3,12.5-33.4,29.8c-2.9,16.3,6,28.2,21.6,28.2C770.5,403.1,784.7,390.4,787.7,373.2z"/>
		<path d="M812.1,411.2l12.9-74.2h12.2l-1.9,10.1l1.5-0.4c6.5-8.2,15.3-12.5,24.5-12.5c19.1,0,28.9,14.3,25.6,33.1l-7.8,43.9h-12
			l7.9-44.7c2.2-12.6-3.2-21.3-15.6-21.3c-12.8,0-25.4,10.1-27.8,23.1l-7.5,42.9H812.1z"/>
	</g>
	<g>
		<path class="st0" d="M82.9,40.9C67.5,48.6,57.2,59,59.8,64.1c2.6,5.1,17.1,3,32.4-4.7c15.3-7.7,25.7-18.1,23.1-23.2
			C112.8,31.1,98.2,33.2,82.9,40.9z"/>
		<path d="M124.7,453.7c0,4.6,3.1,7.7,7.7,7.7c4.6,0,7.7-3.1,7.7-7.7v-98.8h-15.4V453.7z"/>
		<path class="st1" d="M131.6,0C59.3,0,0,59.3,0,131.6c0,123.9,90.1,174.8,120.1,187.9L97,341.8c-2.3,2.3-3.1,5.4-1.5,8.5
			c1.5,3.1,3.8,4.6,6.9,4.6h22.3h15.4h21.5c3.1,0,6.2-1.5,6.9-4.6c1.5-3.1,0.8-6.2-1.5-8.5l-24.6-22.3c12.9-5.9,39-20.1,63.6-45.2
			c-3.7-6.2-5.2-13.5-4.1-20.7L225,100.1c2-13.4,12.1-23.5,24.9-26C228.5,30.3,183.4,0,131.6,0z M92.2,59.4
			c-15.3,7.7-29.9,9.8-32.4,4.7c-2.6-5.1,7.8-15.5,23.1-23.2c15.3-7.7,29.9-9.8,32.4-4.7C117.9,41.3,107.5,51.7,92.2,59.4z"/>
	</g>
	<path class="st2" d="M778.9,278.5c-8.5,0-15.5,7-15.5,15.5c0,8.5,7,15.5,15.5,15.5c8.5,0,15.5-7,15.5-15.5
		C794.4,285.6,787.4,278.5,778.9,278.5z M778.9,299.6c-3,0-5.5-2.5-5.5-5.5c0-3,2.5-5.5,5.5-5.5s5.5,2.5,5.5,5.5
		C784.4,297.1,781.9,299.6,778.9,299.6z"/>
	<path class="st3" d="M489.7,55.6l-9.6,0.9l-6.1-7.4c-0.9-1.3-2.6-1.7-4.3-1.3c-1.7,0.4-3,1.7-3,3.5l-2.2,9.1l-8.7,3.5
		c-1.7,0.4-2.6,2.2-2.6,3.9c0,1.7,0.9,3,2.2,3.9l8.3,4.8l0.4,9.6c0,1.7,1.3,3,2.6,3.9c0.4,0.4,1.3,0.4,1.7,0.4c0.9,0,2.2-0.4,3-0.9
		l7.4-6.1l9.1,2.2c1.7,0.4,3.5,0,4.3-1.3c0.9-1.3,1.3-3,0.9-4.3l-3.9-8.7l5.2-8.3c0.9-1.3,0.9-3,0-4.8
		C492.8,56.5,491.5,55.6,489.7,55.6z M479.7,71.7l1.3,2.6l-3-0.9c-1.3-0.4-3,0-3.9,0.9l-2.2,2.2v-3c0-1.3-0.9-2.6-2.2-3.5l-2.6-1.3
		l2.6-1.3c1.3-0.4,2.2-1.7,2.6-3l0.9-3l1.7,2.2c0.9,1.3,2.2,1.7,3.9,1.7l3-0.4l-1.7,3C479.3,69.1,479.3,70.4,479.7,71.7z"/>
	
		<ellipse transform="matrix(0.7504 -0.6609 0.6609 0.7504 -102.8491 295.7366)" class="st4" cx="340.2" cy="284.1" rx="10.5" ry="10.5"/>
</g>
</svg>
