<?xml version="1.0" encoding="utf-8"?>
<!-- Generator: Adobe Illustrator 24.2.0, SVG Export Plug-In . SVG Version: 6.00 Build 0)  -->
<svg version="1.1" id="Layer_1" xmlns="http://www.w3.org/2000/svg" xmlns:xlink="http://www.w3.org/1999/xlink" x="0px" y="0px"
	 viewBox="0 0 249.1 389.5" style="enable-background:new 0 0 249.1 389.5;" xml:space="preserve">
<style type="text/css">
	.st0{fill:none;}
	.st1{fill:#EDD09D;}
	.st2{fill:#FFFFFF;}
	.st3{fill:#3C4376;}
	.st4{fill:#FFE225;}
</style>
<g>
	<path class="st0" d="M72.6,107.8c0.7,0.8,1.5,1.5,2.3,2.1c-0.7-0.5-1.3-1-1.9-1.6C72.9,108.1,72.7,108,72.6,107.8z"/>
	<path class="st0" d="M177.9,107.7c2.5-2.8,4.1-6.5,4.1-10.7c0,0.6,0,1.1-0.1,1.7C181.5,102.2,180.1,105.3,177.9,107.7z"/>
	<path class="st0" d="M176.7,108.9c-1.8,1.6-3.8,2.8-6.1,3.5C172.8,111.7,174.9,110.5,176.7,108.9z"/>
	<path class="st1" d="M104,110.9c4.3,6.5,12.1,10.8,20.4,10.8c8.7,0,16-4.3,20.4-10.8c4.3,6.5,12.1,10.8,20.4,10.8
		c0.3,0,0.6,0,0.9,0v0c-0.3,0-0.6,0-0.9,0c-8.2,0-16-4.3-20.4-10.8c-4.3,6.5-11.7,10.8-20.4,10.8C116.1,121.7,108.3,117.4,104,110.9
		c-4.3,6.5-11.7,10.8-20.4,10.8c-6.1,0-11.7-2.2-16-6.1v0c4.3,3.9,10,6.1,16,6.1C92.3,121.7,99.6,117.4,104,110.9z"/>
	<path class="st1" d="M181.1,115.7v38.2H67.6v-38.2c4.3,3.9,10,6.1,16,6.1c8.7,0,16-4.3,20.4-10.8c4.3,6.5,12.1,10.8,20.4,10.8
		c8.7,0,16-4.3,20.4-10.8c4.3,6.5,12.1,10.8,20.4,10.8c0.3,0,0.6,0,0.9,0v0c1.4,0,2.8-0.2,4.2-0.5c0.7-0.1,1.4-0.3,2-0.5
		c1-0.3,2-0.7,2.9-1.1c0.9-0.4,1.8-0.9,2.7-1.5C178.9,117.4,180,116.6,181.1,115.7z"/>
	<path class="st1" d="M177.8,118.2c-0.9,0.5-1.8,1-2.7,1.5C176,119.2,176.9,118.7,177.8,118.2z"/>
	<path class="st1" d="M165,121.7c-8.2,0-16-4.3-20.4-10.8c-4.3,6.5-11.7,10.8-20.4,10.8c-8.2,0-16-4.3-20.4-10.8
		c-4.3,6.5-11.7,10.8-20.4,10.8c-6.1,0-11.7-2.2-16-6.1v0c4.3,3.9,10,6.1,16,6.1c8.7,0,16-4.3,20.4-10.8
		c4.3,6.5,12.1,10.8,20.4,10.8c8.7,0,16-4.3,20.4-10.8C149,117.4,156.8,121.7,165,121.7c0.3,0,0.6,0,0.9,0v0
		C165.6,121.7,165.3,121.7,165,121.7z"/>
	<path class="st1" d="M181.1,115.7L181.1,115.7c-4.1,3.7-9.4,5.8-15.2,6v0C171.7,121.5,177,119.4,181.1,115.7z"/>
	<path class="st0" d="M177.2,108.5c-2.9,2.9-6.9,4.6-11.3,4.6c1.6,0,3.1-0.2,4.6-0.7c2.3-0.7,4.4-1.9,6.1-3.5
		C176.8,108.8,177,108.6,177.2,108.5C177.2,108.5,177.2,108.5,177.2,108.5z"/>
	<path class="st0" d="M177.4,108.3c0.2-0.2,0.4-0.4,0.5-0.6c2.2-2.4,3.6-5.5,4-9C181.5,102.5,179.8,105.8,177.4,108.3z"/>
	<path class="st0" d="M76.8,111.1c1.8,1,3.8,1.6,6,1.9C80.6,112.8,78.6,112.1,76.8,111.1z"/>
	<path class="st0" d="M72.6,107.8c0,0-0.1-0.1-0.1-0.1c1.2,1.4,2.6,2.6,4.3,3.4c-0.6-0.3-1.2-0.7-1.8-1.2
		C74.1,109.3,73.3,108.6,72.6,107.8z"/>
	<path class="st2" d="M141.1,98.7c0.1-0.6,0.1-1.1,0.1-1.7c0,0,0,0,0,0C141.2,97.6,141.2,98.2,141.1,98.7z"/>
	<path class="st2" d="M181.9,68.9V97c0,0.3,0,0.6,0,0.9c-0.4,8.7-7.6,15.2-16,15.2c-6.9,0-12.9-4.6-15.1-10.8
		c-0.6-1.6-0.9-3.4-0.9-5.2c0-0.6-0.1-1.2-0.3-1.8c-0.6-1.6-2.1-2.6-4-2.6c-2.6,0-4.3,1.7-4.3,4.3c0,9.1-7.4,16-16,16
		c-8,0-14.3-5.6-15.7-12.8c-0.2-1-0.3-2.1-0.3-3.2c0-0.3,0-0.6-0.1-0.9c0-0.1-0.1-0.2-0.1-0.3c0-0.2-0.1-0.4-0.1-0.5
		c-0.6-1.6-2.1-2.6-4-2.6c-2.6,0-4.3,1.7-4.3,4.3c0,9.1-7.4,16-16,16c-3.6,0-6.9-1.2-9.5-3.1c-0.7-0.5-1.3-1-1.9-1.6
		c-0.2-0.2-0.3-0.3-0.5-0.5c-1.4-1.5-2.4-3.3-3.1-5.2c-0.6-1.7-1-3.6-1-5.5V68.9H181.9z"/>
	<path class="st2" d="M100.4,98.7c0.1-0.6,0.1-1.1,0.1-1.7c0-0.3,0-0.6,0.1-0.9c-0.1,0.3-0.1,0.6-0.1,0.9
		C100.5,97.6,100.5,98.2,100.4,98.7z"/>
	<rect x="68.4" y="68.9" class="st2" width="97.5" height="0"/>
	<path class="st2" d="M165.9,113.1c4.3,0,8.3-1.7,11.3-4.6c0.1-0.1,0.1-0.1,0.2-0.2c2.5-2.5,4.1-5.8,4.5-9.6
		c0.1-0.6,0.1-1.1,0.1-1.7v0C181.9,106.1,174.6,113.1,165.9,113.1L165.9,113.1C165.9,113.1,165.9,113.1,165.9,113.1z"/>
	<path class="st2" d="M150.8,102.2c2.2,6.2,8.2,10.9,15.1,10.9v0C159.1,113.1,153,108.4,150.8,102.2z"/>
	<path class="st2" d="M109.1,96.1c0-0.1-0.1-0.2-0.1-0.3C109,95.9,109.1,96,109.1,96.1z"/>
	<path class="st2" d="M104.8,92.7c1.9,0,3.4,1,4,2.6C108.2,93.7,106.8,92.7,104.8,92.7c-2.6,0-4.3,1.7-4.3,4.3c0,9.1-7.4,16-16,16
		c-3.6,0-6.9-1.2-9.5-3.1c0.6,0.4,1.2,0.8,1.8,1.2c0,0,0,0,0.1,0c1.8,1,3.8,1.6,6,1.9c0.5,0.1,1.1,0.1,1.7,0.1
		c8.1,0,15.1-6.1,15.9-14.3c0.1-0.6,0.1-1.1,0.1-1.7c0-0.3,0-0.6,0.1-0.9C100.9,94,102.6,92.7,104.8,92.7z"/>
	<path class="st2" d="M69.4,102.6c0.7,1.9,1.7,3.6,3,5.1c0,0,0.1,0.1,0.1,0.1C71.2,106.3,70.2,104.5,69.4,102.6z"/>
	<path class="st2" d="M145.6,92.7c1.9,0,3.4,1,4,2.6C149,93.7,147.5,92.7,145.6,92.7c-2.6,0-4.3,1.7-4.3,4.3c0,9.1-7.4,16-16,16
		c-8,0-14.3-5.6-15.7-12.9c1.5,7.2,7.8,12.9,15.7,12.9c8.1,0,15.1-6.1,15.9-14.4c0.1-0.6,0.1-1.1,0.1-1.7c0,0,0,0,0,0c0,0,0,0,0,0
		C141.2,94.4,143,92.7,145.6,92.7z"/>
	<polygon class="st2" points="165.9,68.9 181.9,68.9 181.9,68.9 181.9,68.9 165.9,68.9 	"/>
	<path d="M149.6,95.3c0.2,0.5,0.3,1.1,0.3,1.8c0,1.8,0.3,3.5,0.9,5.2c-0.6-1.6-0.9-3.4-0.9-5.2C149.9,96.4,149.8,95.8,149.6,95.3z"
		/>
	<polygon points="165.9,121.7 165.9,121.7 165.9,121.7 165.9,121.7 	"/>
	<path d="M109.1,96.1c0.1,0.3,0.1,0.6,0.1,0.9c0,1.1,0.1,2.1,0.3,3.2c-0.2-1-0.3-2.1-0.3-3.2C109.2,96.7,109.1,96.4,109.1,96.1z"/>
	<path d="M109,95.8c0-0.2-0.1-0.4-0.1-0.5C108.9,95.4,109,95.6,109,95.8z"/>
	<polygon points="67.6,115.7 67.6,115.7 67.6,115.7 67.6,115.7 	"/>
	<polygon points="165.9,121.7 165.9,121.7 165.9,121.7 165.9,121.7 	"/>
	<polygon points="165.9,68.9 165.9,68.9 68.4,68.9 68.4,68.9 68.4,68.9 68.4,68.9 68.4,68.9 	"/>
	<path d="M177.2,108.5C177.2,108.5,177.2,108.5,177.2,108.5c-0.2,0.2-0.4,0.3-0.5,0.5c0.4-0.4,0.9-0.8,1.2-1.2
		c-0.2,0.2-0.4,0.4-0.5,0.6C177.3,108.3,177.2,108.4,177.2,108.5z"/>
	<path d="M165.9,113.1L165.9,113.1c1.6,0,3.1-0.2,4.6-0.7C169,112.8,167.5,113.1,165.9,113.1C165.9,113.1,165.9,113.1,165.9,113.1z"
		/>
	<path d="M150.8,102.2c-0.6-1.6-0.9-3.4-0.9-5.2c0-0.6-0.1-1.2-0.3-1.8c-0.6-1.6-2.1-2.6-4-2.6c-2.6,0-4.3,1.7-4.3,4.3c0,0,0,0,0,0
		c0-2.6,1.7-4.3,4.3-4.3c2.6,0,4.3,1.7,4.3,4.3c0,8.7,7.4,16,16,16v0C159.1,113.1,153,108.4,150.8,102.2z"/>
	<path d="M68.4,97L68.4,97c0,0.8,0.1,1.6,0.2,2.4c0-0.3-0.1-0.5-0.1-0.8C68.5,98.1,68.4,97.6,68.4,97z"/>
	<path d="M84.5,113.1c-0.6,0-1.1,0-1.7-0.1c-2.2-0.2-4.2-0.9-6-1.9c0,0,0,0-0.1,0c-1.6-0.9-3.1-2.1-4.3-3.4
		c-0.1-0.2-0.3-0.3-0.4-0.5C74.9,110.7,79.4,113.1,84.5,113.1c8.1,0,15.1-6.1,15.9-14.3C99.6,107,92.6,113.1,84.5,113.1z"/>
	<path d="M125.2,113.1c-8,0-14.3-5.6-15.7-12.9c-0.2-1-0.3-2.1-0.3-3.2c0-0.3,0-0.6-0.1-0.9c0-0.1-0.1-0.2-0.1-0.3
		c0-0.2-0.1-0.4-0.1-0.5c-0.6-1.6-2.1-2.6-4-2.6c-2.3,0-3.9,1.3-4.3,3.4c0.4-2.1,2-3.4,4.3-3.4c2.6,0,4.3,1.7,4.3,4.3
		C109.2,105.7,116.1,113.1,125.2,113.1c8.1,0,15.1-6.1,15.9-14.4C140.3,107,133.3,113.1,125.2,113.1z"/>
	<rect x="165.9" y="68.9" width="16" height="0"/>
	<path d="M72,107.2c-1.8-2.2-3-4.9-3.4-7.8C69.1,102.3,70.2,105,72,107.2z"/>
	<path d="M68.4,97c0,0.5,0,1.1,0.1,1.6c0.1,1.4,0.5,2.7,0.9,3.9C68.8,100.8,68.4,99,68.4,97z"/>
	<path d="M177.4,108.3c-0.1,0.1-0.1,0.1-0.2,0.2C177.2,108.4,177.3,108.3,177.4,108.3z"/>
	<path d="M69.4,102.6c-0.5-1.2-0.8-2.6-0.9-3.9c0,0.3,0.1,0.5,0.1,0.8c0.4,2.9,1.6,5.6,3.4,7.8c0.1,0.2,0.3,0.3,0.4,0.5
		C71.2,106.2,70.1,104.4,69.4,102.6z"/>
	<path d="M82.8,113c0.5,0.1,1.1,0.1,1.7,0.1C83.9,113.1,83.3,113,82.8,113z"/>
	<path d="M76.7,111.1C76.7,111.1,76.8,111.1,76.7,111.1C76.8,111.1,76.7,111.1,76.7,111.1z"/>
	<path class="st3" d="M74.2,259L74.2,259C74.2,259,74.2,259,74.2,259L74.2,259z"/>
	<path class="st0" d="M185.4,215.7c-8.2,0-16-4.3-20.4-10.8c-4.3,6.5-12.1,10.8-20.4,10.8c-8.2,0-16-4.3-20.4-10.8
		c-4.3,6.5-11.7,10.8-20.4,10.8c-8.2,0-16-4.3-20.4-10.8c-4.3,6.5-11.7,10.8-20.4,10.8c-6.1,0-11.7-2.2-16-6.1v0
		c4.3,3.9,10,6.1,16,6.1c8.7,0,16-4.3,20.4-10.8c4.3,6.5,12.1,10.8,20.4,10.8c8.7,0,16-4.3,20.4-10.8c4.3,6.5,12.1,10.8,20.4,10.8
		c8.2,0,16-4.3,20.4-10.8C169.4,211.4,177.2,215.7,185.4,215.7c0.3,0,0.6,0,0.9,0v0C186,215.7,185.7,215.7,185.4,215.7z"/>
	<path class="st0" d="M201.4,209.7L201.4,209.7c-4.1,3.7-9.4,5.8-15.2,6v0C192,215.5,197.3,213.4,201.4,209.7z"/>
	<path class="st1" d="M201.4,209.7v38.2H47.2v-38.2c4.3,3.9,10,6.1,16,6.1c8.7,0,16-4.3,20.4-10.8c4.3,6.5,12.1,10.8,20.4,10.8
		c8.7,0,16-4.3,20.4-10.8c4.3,6.5,12.1,10.8,20.4,10.8s16-4.3,20.4-10.8c4.3,6.5,12.1,10.8,20.4,10.8c0.3,0,0.6,0,0.9,0v0
		C192,215.5,197.3,213.4,201.4,209.7z"/>
	<polygon class="st0" points="186.3,162.9 48.1,162.9 48.1,162.9 48.1,162.9 186.3,162.9 	"/>
	<path class="st0" d="M186.3,207.1L186.3,207.1c8.7,0,16-6.9,16-16v0C202.3,200.2,194.9,207.1,186.3,207.1z"/>
	<path class="st0" d="M170.2,191.1c0-2.6-1.7-4.3-4.3-4.3c-2.6,0-4.3,1.7-4.3,4.3c0,9.1-7.4,16-16,16c-8.7,0-16-7.4-16-16
		c0-2.6-1.7-4.3-4.3-4.3c-2.6,0-4.3,1.7-4.3,4.3c0,9.1-7.4,16-16,16c-9.1,0-16-7.4-16-16c0-2.6-1.7-4.3-4.3-4.3
		c-2.6,0-4.3,1.7-4.3,4.3c0,9.1-7.4,16-16,16c-9.1,0-16-7.4-16-16v0c0,8.7,6.9,16,16,16c8.7,0,16-6.9,16-16c0-2.6,1.7-4.3,4.3-4.3
		c2.6,0,4.3,1.7,4.3,4.3c0,8.7,6.9,16,16,16c8.7,0,16-6.9,16-16c0-2.6,1.7-4.3,4.3-4.3c2.6,0,4.3,1.7,4.3,4.3c0,8.7,7.4,16,16,16
		c8.7,0,16-6.9,16-16c0-2.6,1.7-4.3,4.3-4.3C168.5,186.7,170.2,188.5,170.2,191.1c0,8.7,6.9,16,16,16v0
		C177.2,207.1,170.2,199.7,170.2,191.1z"/>
	<polygon class="st0" points="202.3,162.9 202.3,162.9 202.3,162.9 186.3,162.9 186.3,162.9 	"/>
	<path class="st2" d="M202.3,162.9v28.2c0,9.1-7.4,16-16,16c-9.1,0-16-7.4-16-16c0-2.6-1.7-4.3-4.3-4.3c-2.6,0-4.3,1.7-4.3,4.3
		c0,9.1-7.4,16-16,16c-8.7,0-16-7.4-16-16c0-2.6-1.7-4.3-4.3-4.3c-2.6,0-4.3,1.7-4.3,4.3c0,9.1-7.4,16-16,16c-9.1,0-16-7.4-16-16
		c0-2.6-1.7-4.3-4.3-4.3c-2.6,0-4.3,1.7-4.3,4.3c0,9.1-7.4,16-16,16c-4.5,0-8.5-1.8-11.4-4.8c-2.9-2.9-4.6-6.9-4.6-11.3v-28.2H202.3
		z"/>
	<path d="M237,341.9h-6.1v-89.7c0-2.6-1.7-4.3-4.3-4.3h-16v-89.7c0-2.6-1.7-4.3-4.3-4.3h-16V64.1c0-2.6-1.7-4.3-4.3-4.3h-14.7V37.7
		c2.4-0.9,4.6-2.3,6.4-4.1c2.7-2.8,4.4-6.4,4.4-10.6c0-3.3-2-7.5-4.4-11.3c-1.7-2.7-3.7-5.2-5.3-7.2c-1.1-1.4-2.2-2.5-2.8-3.2
		c-1.7-1.7-4.8-1.7-6.5,0c-0.7,0.7-1.6,1.8-2.7,3.2c-1.9,2.2-4.1,5.1-6,8.1c-2.2,3.5-3.9,7.2-3.9,10.4c0,4,1.5,7.5,3.9,10.2
		c0.1,0.1,0.2,0.2,0.3,0.3c2,2.2,4.6,3.8,7.5,4.6v21.7h-32.5V37.7c2.4-0.9,4.6-2.3,6.4-4.1c2.7-2.8,4.4-6.4,4.4-10.6
		c0-3.3-2-7.5-4.4-11.3c-1.7-2.7-3.7-5.2-5.3-7.2c-1.2-1.4-2.2-2.5-2.8-3.2c-1.7-1.7-4.8-1.7-6.5,0c-0.7,0.7-1.6,1.8-2.7,3.2
		c-1.9,2.2-4.1,5.1-6,8.1c-2.2,3.5-3.9,7.2-3.9,10.4c0,4,1.5,7.5,3.9,10.2c0.1,0.1,0.2,0.2,0.3,0.3c2,2.2,4.6,3.8,7.5,4.6v21.7H87.9
		V37.7c2.4-0.9,4.6-2.3,6.4-4.1c2.7-2.8,4.4-6.4,4.4-10.6c0-3.3-2-7.5-4.4-11.3c-1.7-2.7-3.7-5.2-5.3-7.2c-1.2-1.4-2.2-2.5-2.8-3.2
		c-1.7-1.7-4.8-1.7-6.5,0C79,2,78.1,3.1,77,4.5c-1.9,2.2-4.1,5.1-6,8.1c-2.2,3.5-3.9,7.2-3.9,10.4c0,4,1.5,7.5,3.9,10.2
		c0.1,0.1,0.2,0.2,0.3,0.3c2,2.2,4.6,3.8,7.5,4.6v21.7H63.2c-2.6,0-4.3,1.7-4.3,4.3v89.7h-16c-2.6,0-4.3,1.7-4.3,4.3v89.7h-16
		c-2.6,0-4.3,1.7-4.3,4.3v89.7h-6.1c-3.5,0-6.8,1.7-9,4.2c0,0,0,0,0,0C1.2,348.2,0,351,0,354v6.1c0,3.1,1.2,5.9,3.1,8
		c2.1,2.4,5.2,3.9,8.6,4.2l4.8,13.4c0.9,2.6,3.9,3.9,9.1,3.9h197.5c5.2,0,8.2-1.3,9.1-3.9l4.8-13.4c1.3,0,2.7-0.3,3.9-0.7
		c4.7-1.7,8.2-6.3,8.2-11.4V354C249.1,347.5,243.5,341.9,237,341.9z M161.9,28.6c-0.3-0.3-0.6-0.6-0.9-1c-0.1-0.2-0.3-0.4-0.4-0.5
		c-0.2-0.4-0.5-0.8-0.6-1.2c-0.1-0.2-0.2-0.4-0.2-0.6c-0.1-0.4-0.2-0.8-0.3-1.3c0-0.2,0-0.4,0-0.6c0-0.1,0-0.3,0-0.4
		c0-0.3,0.1-0.7,0.3-1.1c0.1-0.2,0.2-0.4,0.2-0.6c0.2-0.4,0.4-0.9,0.6-1.4c0.4-0.7,0.8-1.5,1.3-2.4c0.3-0.6,0.7-1.1,1.1-1.7
		c1-1.5,2.1-3,3.3-4.5c1.2,1.5,2.4,3,3.3,4.5c0.4,0.6,0.8,1.2,1.1,1.7c0.5,0.8,1,1.6,1.3,2.4c0.2,0.5,0.5,1,0.6,1.4
		c0.1,0.2,0.2,0.4,0.2,0.6c0.1,0.4,0.2,0.8,0.3,1.1c0,0.2,0,0.3,0,0.4c0,3.9-3,6.9-6.9,6.9C164.7,30.3,163.1,29.7,161.9,28.6z
		 M120.3,28.6c-0.3-0.3-0.6-0.6-0.9-1c-0.1-0.2-0.3-0.4-0.4-0.5c-0.2-0.4-0.4-0.8-0.6-1.2c-0.1-0.2-0.2-0.4-0.2-0.6
		c-0.1-0.4-0.2-0.8-0.3-1.3c0-0.2,0-0.4,0-0.6c0-0.1,0-0.3,0-0.4c0-0.3,0.1-0.7,0.3-1.1c0.1-0.2,0.2-0.4,0.2-0.6
		c0.2-0.4,0.4-0.9,0.6-1.4c0.4-0.7,0.8-1.5,1.3-2.4c0.3-0.6,0.7-1.1,1.1-1.7c1-1.5,2.1-3,3.3-4.5c1.2,1.5,2.4,3,3.3,4.5
		c0.4,0.6,0.8,1.2,1.1,1.7c0.5,0.8,1,1.6,1.3,2.4c0.2,0.5,0.5,1,0.6,1.4c0.1,0.2,0.2,0.4,0.2,0.6c0.1,0.4,0.2,0.8,0.3,1.1
		c0,0.2,0,0.3,0,0.4c0,3.9-3,6.9-6.9,6.9C123.1,30.3,121.5,29.7,120.3,28.6z M78.7,28.6c-0.3-0.3-0.6-0.6-0.9-1
		c-0.1-0.2-0.3-0.4-0.4-0.5c-0.2-0.4-0.4-0.8-0.6-1.2c-0.1-0.2-0.2-0.4-0.2-0.6c-0.1-0.4-0.2-0.8-0.3-1.3c0-0.2,0-0.4,0-0.6
		c0-0.1,0-0.3,0-0.4c0.1-0.3,0.1-0.7,0.3-1.1c0.1-0.2,0.2-0.4,0.2-0.6c0.2-0.4,0.4-0.9,0.6-1.4c0.4-0.7,0.8-1.5,1.3-2.4
		c0.3-0.6,0.7-1.1,1.1-1.7c1-1.5,2.1-3,3.3-4.5c1.2,1.5,2.3,3,3.3,4.5c0.4,0.6,0.8,1.2,1.1,1.7c0.5,0.8,1,1.6,1.3,2.4
		c0.2,0.5,0.5,1,0.6,1.4c0.1,0.2,0.2,0.4,0.2,0.6c0.1,0.4,0.2,0.8,0.3,1.1c0,0.2,0,0.3,0,0.4c0,3.9-3,6.9-6.9,6.9
		C81.4,30.3,79.9,29.7,78.7,28.6z M68.5,68.9H182V97c0,4.2-1.5,7.9-4,10.7c-0.4,0.4-0.8,0.8-1.2,1.2c-1.8,1.6-3.8,2.8-6.1,3.5
		c-1.5,0.4-3,0.7-4.6,0.7c-8.7,0-16-7.4-16-16c0-2.6-1.7-4.3-4.3-4.3c-2.6,0-4.3,1.7-4.3,4.3c0,0.6,0,1.1-0.1,1.7
		c-0.8,8.3-7.8,14.3-15.9,14.3c-9.1,0-16-7.4-16-16c0-2.6-1.7-4.3-4.3-4.3c-2.3,0-3.9,1.3-4.3,3.4c0,0.3-0.1,0.6-0.1,0.9
		c0,0.6,0,1.1-0.1,1.7c-0.8,8.3-7.8,14.3-15.9,14.3c-5.1,0-9.5-2.3-12.4-5.9c-1.8-2.2-3-4.9-3.4-7.8c-0.1-0.4-0.1-0.8-0.1-1.2
		c0-0.2,0-0.4,0-0.6s0-0.4,0-0.6V68.9z M67.6,115.7c4.3,3.9,10,6.1,16,6.1c8.7,0,16-4.3,20.4-10.8c4.3,6.5,12.1,10.8,20.4,10.8
		c8.7,0,16-4.3,20.4-10.8c4.3,6.5,12.1,10.8,20.4,10.8c0.3,0,0.6,0,0.9,0v0c2.9-0.1,5.6-0.7,8.2-1.7c2.6-1,4.9-2.5,7-4.3v38.1H67.6
		V115.7z M48.1,162.9h154.2v28.2c0,4.5-1.8,8.6-4.8,11.4c-2.9,2.9-6.9,4.6-11.3,4.6c-9.1,0-16-7.4-16-16c0-2.6-1.7-4.3-4.3-4.3
		c-2.6,0-4.3,1.7-4.3,4.3c0,9.1-7.4,16-16,16c-8.7,0-16-7.4-16-16c0-2.6-1.7-4.3-4.3-4.3c-2.6,0-4.3,1.7-4.3,4.3c0,9.1-7.4,16-16,16
		c-9.1,0-16-7.4-16-16c0-2.6-1.7-4.3-4.3-4.3c-2.6,0-4.3,1.7-4.3,4.3c0,9.1-7.4,16-16,16c-9.1,0-16-7.4-16-16V162.9z M47.2,209.7
		c4.3,3.9,10,6.1,16,6.1c8.7,0,16-4.3,20.4-10.8c4.3,6.5,12.1,10.8,20.4,10.8c8.7,0,16-4.3,20.4-10.8c4.3,6.5,12.1,10.8,20.4,10.8
		c8.2,0,16-4.3,20.4-10.8c4.3,6.5,12.1,10.8,20.4,10.8c0.3,0,0.6,0,0.9,0v0c5.7-0.2,11-2.3,15.2-6v38.1H47.2V209.7z M27.7,256.9
		h194.9v28.2c0,4.5-1.8,8.6-4.8,11.4c-2.9,2.9-6.9,4.6-11.3,4.6c-9.1,0-16-7.4-16-16c0-2.6-1.7-4.3-4.3-4.3c-2.6,0-4.3,1.7-4.3,4.3
		c0,9.1-7.4,16-16,16c-9.1,0-16-7.4-16-16c0-2.6-1.7-4.3-4.3-4.3c-2.6,0-4.3,1.7-4.3,4.3c0,9.1-7.4,16-16,16c-8.7,0-16-7.4-16-16
		c0-2.6-1.7-4.3-4.3-4.3c-2.6,0-4.3,1.7-4.3,4.3c0,9.1-7.4,16-16,16c-9.1,0-16-7.4-16-16c0-2.6-1.7-4.3-4.3-4.3
		c-2.6,0-4.3,1.7-4.3,4.3c0,9.1-7.4,16-16,16c-9.1,0-16-7.4-16-16V256.9z M26.9,303.7c4.3,3.9,10,6.1,16,6.1c8.7,0,16-4.3,20.4-10.8
		c4.3,6.5,12.1,10.8,20.4,10.8c8.7,0,16-4.3,20.4-10.8c4.3,6.5,12.1,10.8,20.4,10.8s16-4.3,20.4-10.8c4.3,6.5,12.1,10.8,20.4,10.8
		c8.2,0,16-4.3,20.4-10.8c4.3,6.5,12.1,10.8,20.4,10.8c6.1,0,11.7-2.2,16-6.1v38.2H26.9V303.7z M225.3,380.9h-201l-3-8.7h207.1
		L225.3,380.9z M240.9,360.1c0,1.7-1.7,3.5-3.5,3.5H12.1c-1.7,0-3.5-1.7-3.5-3.5V354c0-1.7,1.7-3.5,3.5-3.5h225.3
		c1.7,0,3.5,1.7,3.5,3.5V360.1z"/>
	<polygon class="st2" points="24.3,380.9 225.3,380.9 228.3,372.2 21.2,372.2 	"/>
	<path class="st2" d="M237.4,350.5H12.1c-1.7,0-3.5,1.7-3.5,3.5v6.1c0,1.7,1.7,3.5,3.5,3.5h225.3c1.7,0,3.5-1.7,3.5-3.5V354
		C240.9,352.3,239.1,350.5,237.4,350.5z"/>
	<path class="st1" d="M205.8,309.8c-8.2,0-16-4.3-20.4-10.8c-4.3,6.5-12.1,10.8-20.4,10.8s-16-4.3-20.4-10.8
		c-4.3,6.5-12.1,10.8-20.4,10.8c-8.2,0-16-4.3-20.4-10.8c-4.3,6.5-11.7,10.8-20.4,10.8c-8.2,0-16-4.3-20.4-10.8
		c-4.3,6.5-11.7,10.8-20.4,10.8c-6.1,0-11.7-2.2-16-6.1v38.2h6.4h184.3h4.3v-38.2C217.5,307.6,211.8,309.8,205.8,309.8z"/>
	<path class="st2" d="M43.7,301.1c8.7,0,16-6.9,16-16c0-2.6,1.7-4.3,4.3-4.3c2.6,0,4.3,1.7,4.3,4.3c0,8.7,6.9,16,16,16
		c8.7,0,16-6.9,16-16c0-2.6,1.7-4.3,4.3-4.3c2.6,0,4.3,1.7,4.3,4.3c0,8.7,7.4,16,16,16c8.7,0,16-6.9,16-16c0-2.6,1.7-4.3,4.3-4.3
		c2.6,0,4.3,1.7,4.3,4.3c0,8.7,6.9,16,16,16c8.7,0,16-6.9,16-16c0-2.6,1.7-4.3,4.3-4.3c2.6,0,4.3,1.7,4.3,4.3c0,8.7,6.9,16,16,16
		c8.7,0,16-6.9,16-16v-28.2H27.7v28.2C27.7,293.7,34.7,301.1,43.7,301.1z"/>
	<path class="st0" d="M27.7,256.9v28.2v0c0,8.7,6.9,16,16,16c8.7,0,16-6.9,16-16c0-2.6,1.7-4.3,4.3-4.3c2.6,0,4.3,1.7,4.3,4.3
		c0,8.7,6.9,16,16,16c8.7,0,16-6.9,16-16c0-2.6,1.7-4.3,4.3-4.3c2.6,0,4.3,1.7,4.3,4.3c0,8.7,7.4,16,16,16c8.7,0,16-6.9,16-16
		c0-2.6,1.7-4.3,4.3-4.3c2.6,0,4.3,1.7,4.3,4.3c0,8.7,6.9,16,16,16c8.7,0,16-6.9,16-16c0-2.6,1.7-4.3,4.3-4.3c2.6,0,4.3,1.7,4.3,4.3
		c0,8.7,6.9,16,16,16c8.7,0,16-6.9,16-16v0v-28.2v0L27.7,256.9L27.7,256.9z"/>
	<path class="st4" d="M90.1,23.4c0-0.1,0-0.3,0-0.4c0-0.3-0.1-0.7-0.3-1.1c-0.1-0.2-0.1-0.4-0.2-0.6c-0.2-0.4-0.4-0.9-0.6-1.4
		c-0.4-0.7-0.8-1.5-1.3-2.4c-0.3-0.6-0.7-1.1-1.1-1.7c-1-1.5-2.1-3-3.3-4.5c-1.2,1.5-2.3,3-3.3,4.5c-0.4,0.6-0.8,1.2-1.1,1.7
		c-0.5,0.8-1,1.6-1.3,2.4c-0.2,0.5-0.5,1-0.6,1.4c-0.1,0.2-0.2,0.4-0.2,0.6c-0.1,0.4-0.2,0.8-0.3,1.1c0,0.2,0,0.3,0,0.4
		c0,0.2,0,0.4,0,0.6c0,0.4,0.1,0.9,0.3,1.3c0.1,0.2,0.1,0.4,0.2,0.6c0.2,0.4,0.4,0.8,0.6,1.2c0.1,0.2,0.3,0.4,0.4,0.5
		c0.3,0.4,0.6,0.7,0.9,1c1.2,1,2.7,1.7,4.4,1.7C87,30.3,90.1,27.3,90.1,23.4z"/>
	<path class="st0" d="M90.1,23.4c0-0.1,0-0.3,0-0.4c0-0.3-0.1-0.7-0.3-1.1c-0.1-0.2-0.1-0.4-0.2-0.6c-0.2-0.4-0.4-0.9-0.6-1.4
		c-0.4-0.7-0.8-1.5-1.3-2.4c-0.3-0.6-0.7-1.1-1.1-1.7c-1-1.5-2.1-3-3.3-4.5c-1.2,1.5-2.3,3-3.3,4.5c-0.4,0.6-0.8,1.2-1.1,1.7
		c-0.5,0.8-1,1.6-1.3,2.4c-0.2,0.5-0.5,1-0.6,1.4c-0.1,0.2-0.2,0.4-0.2,0.6c-0.1,0.4-0.2,0.8-0.3,1.1c0,0.2,0,0.3,0,0.4
		c0,0.2,0,0.4,0,0.6c0,0.4,0.1,0.9,0.3,1.3c0.1,0.2,0.1,0.4,0.2,0.6c0.2,0.4,0.4,0.8,0.6,1.2c0.1,0.2,0.3,0.4,0.4,0.5
		c0.3,0.4,0.6,0.7,0.9,1c1.2,1,2.7,1.7,4.4,1.7C87,30.3,90.1,27.3,90.1,23.4z"/>
	<path class="st4" d="M131.7,23.4c0-0.1,0-0.3,0-0.4c0-0.3-0.1-0.7-0.3-1.1c-0.1-0.2-0.1-0.4-0.2-0.6c-0.2-0.4-0.4-0.9-0.6-1.4
		c-0.4-0.7-0.8-1.5-1.3-2.4c-0.3-0.6-0.7-1.1-1.1-1.7c-1-1.5-2.1-3-3.3-4.5c-1.2,1.5-2.3,3-3.3,4.5c-0.4,0.6-0.8,1.2-1.1,1.7
		c-0.5,0.8-1,1.6-1.3,2.4c-0.2,0.5-0.5,1-0.6,1.4c-0.1,0.2-0.2,0.4-0.2,0.6c-0.1,0.4-0.2,0.8-0.3,1.1c0,0.2,0,0.3,0,0.4
		c0,0.2,0,0.4,0,0.6c0,0.4,0.1,0.9,0.3,1.3c0.1,0.2,0.1,0.4,0.2,0.6c0.2,0.4,0.4,0.8,0.6,1.2c0.1,0.2,0.3,0.4,0.4,0.5
		c0.3,0.4,0.6,0.7,0.9,1c1.2,1,2.7,1.7,4.4,1.7C128.7,30.3,131.7,27.3,131.7,23.4z"/>
	<path class="st0" d="M131.7,23.4c0-0.1,0-0.3,0-0.4c0-0.3-0.1-0.7-0.3-1.1c-0.1-0.2-0.1-0.4-0.2-0.6c-0.2-0.4-0.4-0.9-0.6-1.4
		c-0.4-0.7-0.8-1.5-1.3-2.4c-0.3-0.6-0.7-1.1-1.1-1.7c-1-1.5-2.1-3-3.3-4.5c-1.2,1.5-2.3,3-3.3,4.5c-0.4,0.6-0.8,1.2-1.1,1.7
		c-0.5,0.8-1,1.6-1.3,2.4c-0.2,0.5-0.5,1-0.6,1.4c-0.1,0.2-0.2,0.4-0.2,0.6c-0.1,0.4-0.2,0.8-0.3,1.1c0,0.2,0,0.3,0,0.4
		c0,0.2,0,0.4,0,0.6c0,0.4,0.1,0.9,0.3,1.3c0.1,0.2,0.1,0.4,0.2,0.6c0.2,0.4,0.4,0.8,0.6,1.2c0.1,0.2,0.3,0.4,0.4,0.5
		c0.3,0.4,0.6,0.7,0.9,1c1.2,1,2.7,1.7,4.4,1.7C128.7,30.3,131.7,27.3,131.7,23.4z"/>
	<path class="st4" d="M173.3,23.4c0-0.1,0-0.3,0-0.4c0-0.3-0.1-0.7-0.3-1.1c-0.1-0.2-0.1-0.4-0.2-0.6c-0.2-0.4-0.4-0.9-0.6-1.4
		c-0.4-0.7-0.8-1.5-1.3-2.4c-0.3-0.6-0.7-1.1-1.1-1.7c-1-1.5-2.1-3-3.3-4.5c-1.2,1.5-2.3,3-3.3,4.5c-0.4,0.6-0.8,1.2-1.1,1.7
		c-0.5,0.8-1,1.6-1.3,2.4c-0.2,0.5-0.5,1-0.6,1.4c-0.1,0.2-0.2,0.4-0.2,0.6c-0.1,0.4-0.2,0.8-0.3,1.1c0,0.2,0,0.3,0,0.4
		c0,0.2,0,0.4,0,0.6c0,0.4,0.1,0.9,0.3,1.3c0.1,0.2,0.1,0.4,0.2,0.6c0.2,0.4,0.4,0.8,0.6,1.2c0.1,0.2,0.3,0.4,0.4,0.5
		c0.3,0.4,0.6,0.7,0.9,1c1.2,1,2.7,1.7,4.4,1.7C170.3,30.3,173.3,27.3,173.3,23.4z"/>
	<path class="st0" d="M173.3,23.4c0-0.1,0-0.3,0-0.4c0-0.3-0.1-0.7-0.3-1.1c-0.1-0.2-0.1-0.4-0.2-0.6c-0.2-0.4-0.4-0.9-0.6-1.4
		c-0.4-0.7-0.8-1.5-1.3-2.4c-0.3-0.6-0.7-1.1-1.1-1.7c-1-1.5-2.1-3-3.3-4.5c-1.2,1.5-2.3,3-3.3,4.5c-0.4,0.6-0.8,1.2-1.1,1.7
		c-0.5,0.8-1,1.6-1.3,2.4c-0.2,0.5-0.5,1-0.6,1.4c-0.1,0.2-0.2,0.4-0.2,0.6c-0.1,0.4-0.2,0.8-0.3,1.1c0,0.2,0,0.3,0,0.4
		c0,0.2,0,0.4,0,0.6c0,0.4,0.1,0.9,0.3,1.3c0.1,0.2,0.1,0.4,0.2,0.6c0.2,0.4,0.4,0.8,0.6,1.2c0.1,0.2,0.3,0.4,0.4,0.5
		c0.3,0.4,0.6,0.7,0.9,1c1.2,1,2.7,1.7,4.4,1.7C170.3,30.3,173.3,27.3,173.3,23.4z"/>
</g>
</svg>
