<?xml version="1.0" encoding="utf-8"?>
<!-- Generator: Adobe Illustrator 24.2.0, SVG Export Plug-In . SVG Version: 6.00 Build 0)  -->
<svg version="1.1" id="Layer_1" xmlns="http://www.w3.org/2000/svg" xmlns:xlink="http://www.w3.org/1999/xlink" x="0px" y="0px"
	 viewBox="0 0 249.1 389.5" style="enable-background:new 0 0 249.1 389.5;" xml:space="preserve">
<style type="text/css">
	.st0{fill:#FFFFFF;}
	.st1{fill:#FFE225;}
	.st2{fill:none;}
	.st3{fill:#EDD09D;}
</style>
<g>
	<path d="M237.4,350.5H12.1c-1.7,0-3.5,1.7-3.5,3.5v6.1c0,1.7,1.7,3.5,3.5,3.5h225.3c1.7,0,3.5-1.7,3.5-3.5V354
		C240.9,352.3,239.1,350.5,237.4,350.5z M24.3,380.9h201l3-8.7H21.2L24.3,380.9z M21.2,372.2l3,8.7h201l3-8.7H21.2z M237.4,350.5
		H12.1c-1.7,0-3.5,1.7-3.5,3.5v6.1c0,1.7,1.7,3.5,3.5,3.5h225.3c1.7,0,3.5-1.7,3.5-3.5V354C240.9,352.3,239.1,350.5,237.4,350.5z"/>
	<path d="M237,341.9h-6.1v-89.7c0-2.6-1.7-4.3-4.3-4.3h-97v-22.1c2.4-0.9,4.6-2.3,6.4-4.1c2.7-2.8,4.4-6.4,4.4-10.6
		c0-3.3-2-7.5-4.4-11.3c-1.7-2.7-3.7-5.2-5.3-7.2c-1.1-1.4-2.2-2.5-2.8-3.2c-1.7-1.7-4.8-1.7-6.5,0c-0.7,0.7-1.6,1.8-2.7,3.2
		c-1.8,2.2-4.1,5.1-6,8.2c-2.2,3.5-3.9,7.2-3.9,10.3c0,4,1.5,7.5,3.9,10.2c0.1,0.1,0.2,0.2,0.3,0.3c2,2.2,4.6,3.8,7.5,4.6v21.7H22.5
		c-2.6,0-4.3,1.7-4.3,4.3v89.7h-6.1c-3.5,0-6.8,1.6-9,4.2c0,0,0,0,0,0C1.2,348.2,0,351,0,354v6.1c0,3.1,1.2,5.9,3.1,8
		c2.1,2.4,5.2,3.9,8.6,4.1l4.8,13.4c0.9,2.6,3.9,3.9,9.1,3.9h197.5c5.2,0,8.2-1.3,9.1-3.9l4.8-13.4c1.3,0,2.7-0.3,3.9-0.7
		c4.7-1.7,8.2-6.3,8.2-11.4V354C249.1,347.5,243.5,341.9,237,341.9z M120.3,216.6c-0.3-0.3-0.6-0.6-0.9-1c-0.1-0.2-0.3-0.4-0.4-0.5
		c-0.2-0.4-0.5-0.8-0.6-1.2c-0.1-0.2-0.2-0.4-0.2-0.6c-0.1-0.4-0.2-0.8-0.3-1.3c0-0.2,0-0.4,0-0.6c0-0.1,0-0.3,0-0.5
		c0-0.3,0.1-0.7,0.3-1.1c0.1-0.2,0.1-0.4,0.2-0.6c0.2-0.4,0.4-0.9,0.6-1.4c0.4-0.7,0.8-1.6,1.3-2.4c0.3-0.6,0.7-1.1,1.1-1.7
		c1-1.5,2.1-3,3.3-4.5c1.2,1.5,2.4,3,3.3,4.5c0.4,0.6,0.8,1.2,1.1,1.7c0.5,0.8,1,1.6,1.3,2.4c0.2,0.5,0.5,1,0.6,1.4
		c0.1,0.2,0.2,0.4,0.2,0.6c0.1,0.4,0.2,0.8,0.3,1.1c0,0.2,0,0.3,0,0.5c0,3.9-3,6.9-6.9,6.9C123,218.4,121.5,217.7,120.3,216.6z
		 M27.7,256.9h194.9v28.2c0,9.1-7.4,16-16,16c-9.1,0-16-7.4-16-16c0-2.6-1.7-4.3-4.3-4.3s-4.3,1.7-4.3,4.3c0,9.1-7.4,16-16,16
		c-9.1,0-16-7.4-16-16c0-2.6-1.7-4.3-4.3-4.3c-2.6,0-4.3,1.7-4.3,4.3c0,9.1-7.4,16-16,16c-8.7,0-16-7.4-16-16c0-2.6-1.7-4.3-4.3-4.3
		s-4.3,1.7-4.3,4.3c0,9.1-7.4,16-16,16c-9.1,0-16-7.4-16-16c0-2.6-1.7-4.3-4.3-4.3c-2.6,0-4.3,1.7-4.3,4.3c0,9.1-7.4,16-16,16
		c-9.1,0-16-7.4-16-16V256.9z M26.9,303.7c4.3,3.9,10,6.1,16,6.1c8.7,0,16-4.3,20.4-10.8c4.3,6.5,12.1,10.8,20.4,10.8
		c8.7,0,16-4.3,20.4-10.8c4.3,6.5,12.1,10.8,20.4,10.8c8.2,0,16-4.3,20.4-10.8c4.3,6.5,12.1,10.8,20.4,10.8c8.2,0,16-4.3,20.4-10.8
		c4.3,6.5,12.1,10.8,20.4,10.8c6.1,0,11.7-2.2,16-6.1v38.2H26.9V303.7z M225.3,380.9h-201l-3-8.7h207.1L225.3,380.9z M240.9,360.1
		c0,1.7-1.7,3.5-3.5,3.5H12.1c-1.7,0-3.5-1.7-3.5-3.5V354c0-1.7,1.7-3.5,3.5-3.5h225.3c1.7,0,3.5,1.7,3.5,3.5V360.1z"/>
	<polygon class="st0" points="24.3,380.9 225.3,380.9 228.3,372.2 21.2,372.2 	"/>
	<path class="st0" d="M237.4,350.5H12.1c-1.7,0-3.5,1.7-3.5,3.5v6.1c0,1.7,1.7,3.5,3.5,3.5h225.3c1.7,0,3.5-1.7,3.5-3.5V354
		C240.9,352.3,239.1,350.5,237.4,350.5z"/>
	<path class="st1" d="M131.7,211.4c0-0.1,0-0.3,0-0.4c0-0.3-0.1-0.7-0.3-1.1c-0.1-0.2-0.1-0.4-0.2-0.6c-0.2-0.4-0.4-0.9-0.6-1.4
		c-0.4-0.7-0.8-1.5-1.3-2.4c-0.3-0.6-0.7-1.1-1.1-1.7c-1-1.5-2.1-3-3.3-4.5c-1.2,1.5-2.3,3-3.3,4.5c-0.4,0.6-0.8,1.2-1.1,1.7
		c-0.5,0.8-1,1.6-1.3,2.4c-0.2,0.5-0.5,1-0.6,1.4c-0.1,0.2-0.2,0.4-0.2,0.6c-0.1,0.4-0.2,0.8-0.3,1.1c0,0.2,0,0.3,0,0.4
		c0,0.2,0,0.4,0,0.6c0,0.4,0.1,0.9,0.3,1.3c0.1,0.2,0.1,0.4,0.2,0.6c0.2,0.4,0.4,0.8,0.6,1.2c0.1,0.2,0.3,0.4,0.4,0.5
		c0.3,0.4,0.6,0.7,0.9,1c1.2,1,2.7,1.7,4.4,1.7C128.7,218.4,131.7,215.3,131.7,211.4z"/>
	<path class="st2" d="M131.7,211.4c0-0.1,0-0.3,0-0.4c0-0.3-0.1-0.7-0.3-1.1c-0.1-0.2-0.1-0.4-0.2-0.6c-0.2-0.4-0.4-0.9-0.6-1.4
		c-0.4-0.7-0.8-1.5-1.3-2.4c-0.3-0.6-0.7-1.1-1.1-1.7c-1-1.5-2.1-3-3.3-4.5c-1.2,1.5-2.3,3-3.3,4.5c-0.4,0.6-0.8,1.2-1.1,1.7
		c-0.5,0.8-1,1.6-1.3,2.4c-0.2,0.5-0.5,1-0.6,1.4c-0.1,0.2-0.2,0.4-0.2,0.6c-0.1,0.4-0.2,0.8-0.3,1.1c0,0.2,0,0.3,0,0.4
		c0,0.2,0,0.4,0,0.6c0,0.4,0.1,0.9,0.3,1.3c0.1,0.2,0.1,0.4,0.2,0.6c0.2,0.4,0.4,0.8,0.6,1.2c0.1,0.2,0.3,0.4,0.4,0.5
		c0.3,0.4,0.6,0.7,0.9,1c1.2,1,2.7,1.7,4.4,1.7C128.7,218.4,131.7,215.3,131.7,211.4z"/>
	<path class="st3" d="M205.8,309.8c-8.2,0-16-4.3-20.4-10.8c-4.3,6.5-12.1,10.8-20.4,10.8s-16-4.3-20.4-10.8
		c-4.3,6.5-12.1,10.8-20.4,10.8c-8.2,0-16-4.3-20.4-10.8c-4.3,6.5-11.7,10.8-20.4,10.8c-8.2,0-16-4.3-20.4-10.8
		c-4.3,6.5-11.7,10.8-20.4,10.8c-6.1,0-11.7-2.2-16-6.1v38.2h6.4h184.3h4.3v-38.2C217.5,307.6,211.8,309.8,205.8,309.8z"/>
	<path class="st0" d="M43.7,301.1c8.7,0,16-6.9,16-16c0-2.6,1.7-4.3,4.3-4.3c2.6,0,4.3,1.7,4.3,4.3c0,8.7,6.9,16,16,16
		c8.7,0,16-6.9,16-16c0-2.6,1.7-4.3,4.3-4.3c2.6,0,4.3,1.7,4.3,4.3c0,8.7,7.4,16,16,16c8.7,0,16-6.9,16-16c0-2.6,1.7-4.3,4.3-4.3
		c2.6,0,4.3,1.7,4.3,4.3c0,8.7,6.9,16,16,16c8.7,0,16-6.9,16-16c0-2.6,1.7-4.3,4.3-4.3c2.6,0,4.3,1.7,4.3,4.3c0,8.7,6.9,16,16,16
		c8.7,0,16-6.9,16-16v-28.2H27.7v28.2C27.7,293.7,34.7,301.1,43.7,301.1z"/>
	<path class="st2" d="M27.7,256.9v28.2v0c0,8.7,6.9,16,16,16c8.7,0,16-6.9,16-16c0-2.6,1.7-4.3,4.3-4.3c2.6,0,4.3,1.7,4.3,4.3
		c0,8.7,6.9,16,16,16c8.7,0,16-6.9,16-16c0-2.6,1.7-4.3,4.3-4.3c2.6,0,4.3,1.7,4.3,4.3c0,8.7,7.4,16,16,16c8.7,0,16-6.9,16-16
		c0-2.6,1.7-4.3,4.3-4.3c2.6,0,4.3,1.7,4.3,4.3c0,8.7,6.9,16,16,16c8.7,0,16-6.9,16-16c0-2.6,1.7-4.3,4.3-4.3c2.6,0,4.3,1.7,4.3,4.3
		c0,8.7,6.9,16,16,16c8.7,0,16-6.9,16-16v0v-28.2v0L27.7,256.9L27.7,256.9z"/>
</g>
</svg>
