<?xml version="1.0" encoding="utf-8"?>
<!-- Generator: Adobe Illustrator 24.2.0, SVG Export Plug-In . SVG Version: 6.00 Build 0)  -->
<svg version="1.1" id="Layer_1" xmlns="http://www.w3.org/2000/svg" xmlns:xlink="http://www.w3.org/1999/xlink" x="0px" y="0px"
	 viewBox="0 0 249.1 389.5" style="enable-background:new 0 0 249.1 389.5;" xml:space="preserve">
<style type="text/css">
	.st0{fill:#3C4376;}
	.st1{fill:none;}
	.st2{fill:#EDD09D;}
	.st3{fill:#FFFFFF;}
	.st4{fill:#FFE225;}
</style>
<g>
	<path class="st0" d="M74.2,259L74.2,259C74.2,259,74.2,259,74.2,259L74.2,259z"/>
	<path class="st1" d="M185.4,215.7c-8.2,0-16-4.3-20.4-10.8c-4.3,6.5-12.1,10.8-20.4,10.8c-8.2,0-16-4.3-20.4-10.8
		c-4.3,6.5-11.7,10.8-20.4,10.8c-8.2,0-16-4.3-20.4-10.8c-4.3,6.5-11.7,10.8-20.4,10.8c-6.1,0-11.7-2.2-16-6.1v0
		c4.3,3.9,10,6.1,16,6.1c8.7,0,16-4.3,20.4-10.8c4.3,6.5,12.1,10.8,20.4,10.8c8.7,0,16-4.3,20.4-10.8c4.3,6.5,12.1,10.8,20.4,10.8
		c8.2,0,16-4.3,20.4-10.8C169.4,211.4,177.2,215.7,185.4,215.7c0.3,0,0.6,0,0.9,0v0C186,215.7,185.7,215.7,185.4,215.7z"/>
	<path class="st1" d="M201.4,209.7L201.4,209.7c-4.1,3.7-9.4,5.8-15.2,6v0C192,215.5,197.3,213.4,201.4,209.7z"/>
	<path class="st2" d="M201.4,209.7v38.2H47.2v-38.2c4.3,3.9,10,6.1,16,6.1c8.7,0,16-4.3,20.4-10.8c4.3,6.5,12.1,10.8,20.4,10.8
		c8.7,0,16-4.3,20.4-10.8c4.3,6.5,12.1,10.8,20.4,10.8s16-4.3,20.4-10.8c4.3,6.5,12.1,10.8,20.4,10.8c0.3,0,0.6,0,0.9,0v0
		C192,215.5,197.3,213.4,201.4,209.7z"/>
	<polygon class="st1" points="186.3,162.9 48.1,162.9 48.1,162.9 48.1,162.9 186.3,162.9 	"/>
	<path class="st1" d="M186.3,207.1L186.3,207.1c8.7,0,16-6.9,16-16v0C202.3,200.2,194.9,207.1,186.3,207.1z"/>
	<path class="st1" d="M170.2,191.1c0-2.6-1.7-4.3-4.3-4.3c-2.6,0-4.3,1.7-4.3,4.3c0,9.1-7.4,16-16,16c-8.7,0-16-7.4-16-16
		c0-2.6-1.7-4.3-4.3-4.3c-2.6,0-4.3,1.7-4.3,4.3c0,9.1-7.4,16-16,16c-9.1,0-16-7.4-16-16c0-2.6-1.7-4.3-4.3-4.3
		c-2.6,0-4.3,1.7-4.3,4.3c0,9.1-7.4,16-16,16c-9.1,0-16-7.4-16-16v0c0,8.7,6.9,16,16,16c8.7,0,16-6.9,16-16c0-2.6,1.7-4.3,4.3-4.3
		c2.6,0,4.3,1.7,4.3,4.3c0,8.7,6.9,16,16,16c8.7,0,16-6.9,16-16c0-2.6,1.7-4.3,4.3-4.3c2.6,0,4.3,1.7,4.3,4.3c0,8.7,7.4,16,16,16
		c8.7,0,16-6.9,16-16c0-2.6,1.7-4.3,4.3-4.3C168.5,186.7,170.2,188.5,170.2,191.1c0,8.7,6.9,16,16,16v0
		C177.2,207.1,170.2,199.7,170.2,191.1z"/>
	<polygon class="st1" points="202.3,162.9 202.3,162.9 202.3,162.9 186.3,162.9 186.3,162.9 	"/>
	<path class="st3" d="M202.3,162.9v28.2c0,9.1-7.4,16-16,16c-9.1,0-16-7.4-16-16c0-2.6-1.7-4.3-4.3-4.3c-2.6,0-4.3,1.7-4.3,4.3
		c0,9.1-7.4,16-16,16c-8.7,0-16-7.4-16-16c0-2.6-1.7-4.3-4.3-4.3c-2.6,0-4.3,1.7-4.3,4.3c0,9.1-7.4,16-16,16c-9.1,0-16-7.4-16-16
		c0-2.6-1.7-4.3-4.3-4.3c-2.6,0-4.3,1.7-4.3,4.3c0,9.1-7.4,16-16,16c-4.5,0-8.5-1.8-11.4-4.8c-2.9-2.9-4.6-6.9-4.6-11.3v-28.2H202.3
		z"/>
	<path d="M237,341.9h-6.1v-89.7c0-2.6-1.7-4.3-4.3-4.3h-16v-89.7c0-2.6-1.7-4.3-4.3-4.3h-55.9v-22.1c2.4-0.9,4.6-2.3,6.4-4.1
		c2.7-2.8,4.4-6.4,4.4-10.6c0-3.3-2-7.5-4.4-11.3c-1.7-2.7-3.7-5.2-5.3-7.2c-1.1-1.4-2.2-2.5-2.8-3.2c-1.7-1.7-4.8-1.7-6.5,0
		c-0.7,0.7-1.6,1.8-2.7,3.2c-1.8,2.2-4.1,5.1-6,8.1c-2.2,3.5-3.9,7.2-3.9,10.4c0,3.9,1.5,7.5,3.9,10.2c0.1,0.1,0.2,0.2,0.3,0.3
		c2,2.2,4.6,3.8,7.5,4.6v21.7h-32.5v-22.1c2.4-0.9,4.6-2.3,6.4-4.1c2.7-2.8,4.4-6.4,4.4-10.6c0-3.3-2-7.5-4.4-11.3
		c-1.7-2.7-3.7-5.2-5.3-7.2c-1.1-1.4-2.2-2.5-2.8-3.2c-1.7-1.7-4.8-1.7-6.5,0c-0.7,0.7-1.6,1.8-2.7,3.2c-1.9,2.2-4.1,5.1-6,8.1
		c-2.2,3.5-3.9,7.2-3.9,10.4c0,3.9,1.5,7.5,3.9,10.2c0.1,0.1,0.2,0.2,0.3,0.3c2,2.2,4.6,3.8,7.5,4.6v21.7H42.9
		c-2.6,0-4.3,1.7-4.3,4.3v89.7h-16c-2.6,0-4.3,1.7-4.3,4.3v89.7h-6.1c-3.5,0-6.8,1.7-9,4.2c0,0,0,0,0,0C1.2,348.2,0,351,0,354v6.1
		c0,3.1,1.2,5.9,3.1,8c2.1,2.4,5.2,3.9,8.6,4.2l4.8,13.4c0.9,2.6,3.9,3.9,9.1,3.9h197.5c5.2,0,8.2-1.3,9.1-3.9l4.8-13.4
		c1.3,0,2.7-0.3,3.9-0.7c4.7-1.7,8.2-6.3,8.2-11.4V354C249.1,347.5,243.5,341.9,237,341.9z M141.1,122.6c-0.3-0.3-0.6-0.6-0.9-1
		c-0.1-0.2-0.3-0.4-0.4-0.5c-0.2-0.4-0.5-0.8-0.6-1.2c-0.1-0.2-0.2-0.4-0.2-0.6c-0.1-0.4-0.2-0.8-0.3-1.3c0-0.2,0-0.4,0-0.6
		c0-0.1,0-0.3,0-0.4c0-0.3,0.1-0.7,0.3-1.1c0.1-0.2,0.2-0.4,0.2-0.6c0.2-0.4,0.4-0.9,0.6-1.4c0.4-0.7,0.8-1.5,1.3-2.4
		c0.3-0.6,0.7-1.1,1.1-1.7c1-1.5,2.1-3,3.3-4.5c1.2,1.5,2.4,3,3.3,4.5c0.4,0.6,0.8,1.2,1.1,1.7c0.5,0.8,1,1.6,1.3,2.4
		c0.2,0.5,0.5,1,0.6,1.4c0.1,0.2,0.2,0.4,0.2,0.6c0.1,0.4,0.2,0.8,0.3,1.1c0,0.2,0,0.3,0,0.4c0,3.9-3,6.9-6.9,6.9
		C143.9,124.3,142.3,123.7,141.1,122.6z M99.5,122.6c-0.3-0.3-0.6-0.6-0.9-1c-0.1-0.2-0.3-0.4-0.4-0.5c-0.2-0.4-0.5-0.8-0.6-1.2
		c-0.1-0.2-0.2-0.4-0.2-0.6c-0.1-0.4-0.2-0.8-0.3-1.3c0-0.2,0-0.4,0-0.6c0-0.1,0-0.3,0-0.4c0-0.3,0.1-0.7,0.3-1.1
		c0.1-0.2,0.2-0.4,0.2-0.6c0.2-0.4,0.4-0.9,0.6-1.4c0.4-0.7,0.8-1.5,1.3-2.4c0.3-0.6,0.7-1.1,1.1-1.7c1-1.5,2.1-3,3.3-4.5
		c1.2,1.5,2.4,3,3.3,4.5c0.4,0.6,0.8,1.2,1.1,1.7c0.5,0.8,1,1.6,1.3,2.4c0.2,0.5,0.5,1,0.6,1.4c0.1,0.2,0.2,0.4,0.2,0.6
		c0.1,0.4,0.2,0.8,0.3,1.1c0,0.2,0,0.3,0,0.4c0,3.9-3,6.9-6.9,6.9C102.2,124.3,100.7,123.7,99.5,122.6z M48.1,162.9h154.2v28.2
		c0,4.6-1.8,8.6-4.8,11.4c-2.9,2.9-6.9,4.6-11.3,4.6c-9.1,0-16-7.4-16-16c0-2.6-1.7-4.3-4.3-4.3c-2.6,0-4.3,1.7-4.3,4.3
		c0,9.1-7.4,16-16,16c-8.7,0-16-7.4-16-16c0-2.6-1.7-4.3-4.3-4.3c-2.6,0-4.3,1.7-4.3,4.3c0,9.1-7.4,16-16,16c-9.1,0-16-7.4-16-16
		c0-2.6-1.7-4.3-4.3-4.3c-2.6,0-4.3,1.7-4.3,4.3c0,9.1-7.4,16-16,16c-9.1,0-16-7.4-16-16V162.9z M47.2,209.7c4.3,3.9,10,6.1,16,6.1
		c8.7,0,16-4.3,20.4-10.8c4.3,6.5,12.1,10.8,20.4,10.8c8.7,0,16-4.3,20.4-10.8c4.3,6.5,12.1,10.8,20.4,10.8c8.2,0,16-4.3,20.4-10.8
		c4.3,6.5,12.1,10.8,20.4,10.8c0.3,0,0.6,0,0.9,0v0c5.7-0.2,11-2.3,15.2-6v38.1H47.2V209.7z M27.7,256.9h194.9v28.2
		c0,4.5-1.8,8.6-4.8,11.4c-2.9,2.9-6.9,4.6-11.3,4.6c-9.1,0-16-7.4-16-16c0-2.6-1.7-4.3-4.3-4.3s-4.3,1.7-4.3,4.3
		c0,9.1-7.4,16-16,16c-9.1,0-16-7.4-16-16c0-2.6-1.7-4.3-4.3-4.3c-2.6,0-4.3,1.7-4.3,4.3c0,9.1-7.4,16-16,16c-8.7,0-16-7.4-16-16
		c0-2.6-1.7-4.3-4.3-4.3s-4.3,1.7-4.3,4.3c0,9.1-7.4,16-16,16c-9.1,0-16-7.4-16-16c0-2.6-1.7-4.3-4.3-4.3c-2.6,0-4.3,1.7-4.3,4.3
		c0,9.1-7.4,16-16,16c-9.1,0-16-7.4-16-16V256.9z M26.9,303.7c4.3,3.9,10,6.1,16,6.1c8.7,0,16-4.3,20.4-10.8
		c4.3,6.5,12.1,10.8,20.4,10.8c8.7,0,16-4.3,20.4-10.8c4.3,6.5,12.1,10.8,20.4,10.8c8.2,0,16-4.3,20.4-10.8
		c4.3,6.5,12.1,10.8,20.4,10.8c8.2,0,16-4.3,20.4-10.8c4.3,6.5,12.1,10.8,20.4,10.8c6.1,0,11.7-2.2,16-6.1v38.2H26.9V303.7z
		 M225.3,380.9h-201l-3-8.7h207.1L225.3,380.9z M240.9,360.1c0,1.7-1.7,3.5-3.5,3.5H12.1c-1.7,0-3.5-1.7-3.5-3.5V354
		c0-1.7,1.7-3.5,3.5-3.5h225.3c1.7,0,3.5,1.7,3.5,3.5V360.1z"/>
	<polygon class="st3" points="24.3,380.9 225.3,380.9 228.3,372.2 21.2,372.2 	"/>
	<path class="st3" d="M237.4,350.6H12.1c-1.7,0-3.5,1.7-3.5,3.5v6.1c0,1.7,1.7,3.5,3.5,3.5h225.3c1.7,0,3.5-1.7,3.5-3.5V354
		C240.9,352.3,239.1,350.6,237.4,350.6z"/>
	<path class="st2" d="M205.8,309.8c-8.2,0-16-4.3-20.4-10.8c-4.3,6.5-12.1,10.8-20.4,10.8s-16-4.3-20.4-10.8
		c-4.3,6.5-12.1,10.8-20.4,10.8c-8.2,0-16-4.3-20.4-10.8c-4.3,6.5-11.7,10.8-20.4,10.8c-8.2,0-16-4.3-20.4-10.8
		c-4.3,6.5-11.7,10.8-20.4,10.8c-6.1,0-11.7-2.2-16-6.1v38.2h6.4h184.3h4.3v-38.2C217.5,307.6,211.8,309.8,205.8,309.8z"/>
	<path class="st3" d="M43.7,301.1c8.7,0,16-6.9,16-16c0-2.6,1.7-4.3,4.3-4.3c2.6,0,4.3,1.7,4.3,4.3c0,8.7,6.9,16,16,16
		c8.7,0,16-6.9,16-16c0-2.6,1.7-4.3,4.3-4.3c2.6,0,4.3,1.7,4.3,4.3c0,8.7,7.4,16,16,16c8.7,0,16-6.9,16-16c0-2.6,1.7-4.3,4.3-4.3
		c2.6,0,4.3,1.7,4.3,4.3c0,8.7,6.9,16,16,16c8.7,0,16-6.9,16-16c0-2.6,1.7-4.3,4.3-4.3c2.6,0,4.3,1.7,4.3,4.3c0,8.7,6.9,16,16,16
		c8.7,0,16-6.9,16-16v-28.2H27.7v28.2C27.7,293.7,34.7,301.1,43.7,301.1z"/>
	<path class="st1" d="M27.7,256.9v28.2v0c0,8.7,6.9,16,16,16c8.7,0,16-6.9,16-16c0-2.6,1.7-4.3,4.3-4.3c2.6,0,4.3,1.7,4.3,4.3
		c0,8.7,6.9,16,16,16c8.7,0,16-6.9,16-16c0-2.6,1.7-4.3,4.3-4.3c2.6,0,4.3,1.7,4.3,4.3c0,8.7,7.4,16,16,16c8.7,0,16-6.9,16-16
		c0-2.6,1.7-4.3,4.3-4.3c2.6,0,4.3,1.7,4.3,4.3c0,8.7,6.9,16,16,16c8.7,0,16-6.9,16-16c0-2.6,1.7-4.3,4.3-4.3c2.6,0,4.3,1.7,4.3,4.3
		c0,8.7,6.9,16,16,16c8.7,0,16-6.9,16-16v0v-28.2v0L27.7,256.9L27.7,256.9z"/>
	<path class="st4" d="M110.9,117.4c0-0.1,0-0.3,0-0.4c0-0.3-0.1-0.7-0.3-1.1c-0.1-0.2-0.1-0.4-0.2-0.6c-0.2-0.4-0.4-0.9-0.6-1.4
		c-0.4-0.7-0.8-1.5-1.3-2.4c-0.3-0.6-0.7-1.1-1.1-1.7c-1-1.5-2.1-3-3.3-4.5c-1.2,1.5-2.3,3-3.3,4.5c-0.4,0.6-0.8,1.2-1.1,1.7
		c-0.5,0.8-1,1.6-1.3,2.4c-0.2,0.5-0.5,1-0.6,1.4c-0.1,0.2-0.2,0.4-0.2,0.6c-0.1,0.4-0.2,0.8-0.3,1.1c0,0.2,0,0.3,0,0.4
		c0,0.2,0,0.4,0,0.6c0,0.4,0.1,0.9,0.3,1.3c0.1,0.2,0.1,0.4,0.2,0.6c0.2,0.4,0.4,0.8,0.6,1.2c0.1,0.2,0.3,0.4,0.4,0.5
		c0.3,0.4,0.6,0.7,0.9,1c1.2,1,2.7,1.7,4.4,1.7C107.8,124.3,110.9,121.3,110.9,117.4z"/>
	<path class="st1" d="M110.9,117.4c0-0.1,0-0.3,0-0.4c0-0.3-0.1-0.7-0.3-1.1c-0.1-0.2-0.1-0.4-0.2-0.6c-0.2-0.4-0.4-0.9-0.6-1.4
		c-0.4-0.7-0.8-1.5-1.3-2.4c-0.3-0.6-0.7-1.1-1.1-1.7c-1-1.5-2.1-3-3.3-4.5c-1.2,1.5-2.3,3-3.3,4.5c-0.4,0.6-0.8,1.2-1.1,1.7
		c-0.5,0.8-1,1.6-1.3,2.4c-0.2,0.5-0.5,1-0.6,1.4c-0.1,0.2-0.2,0.4-0.2,0.6c-0.1,0.4-0.2,0.8-0.3,1.1c0,0.2,0,0.3,0,0.4
		c0,0.2,0,0.4,0,0.6c0,0.4,0.1,0.9,0.3,1.3c0.1,0.2,0.1,0.4,0.2,0.6c0.2,0.4,0.4,0.8,0.6,1.2c0.1,0.2,0.3,0.4,0.4,0.5
		c0.3,0.4,0.6,0.7,0.9,1c1.2,1,2.7,1.7,4.4,1.7C107.8,124.3,110.9,121.3,110.9,117.4z"/>
	<path class="st4" d="M152.5,117.4c0-0.1,0-0.3,0-0.4c0-0.3-0.1-0.7-0.3-1.1c-0.1-0.2-0.1-0.4-0.2-0.6c-0.2-0.4-0.4-0.9-0.6-1.4
		c-0.4-0.7-0.8-1.5-1.3-2.4c-0.3-0.6-0.7-1.1-1.1-1.7c-1-1.5-2.1-3-3.3-4.5c-1.2,1.5-2.3,3-3.3,4.5c-0.4,0.6-0.8,1.2-1.1,1.7
		c-0.5,0.8-1,1.6-1.3,2.4c-0.2,0.5-0.5,1-0.6,1.4c-0.1,0.2-0.2,0.4-0.2,0.6c-0.1,0.4-0.2,0.8-0.3,1.1c0,0.2,0,0.3,0,0.4
		c0,0.2,0,0.4,0,0.6c0,0.4,0.1,0.9,0.3,1.3c0.1,0.2,0.1,0.4,0.2,0.6c0.2,0.4,0.4,0.8,0.6,1.2c0.1,0.2,0.3,0.4,0.4,0.5
		c0.3,0.4,0.6,0.7,0.9,1c1.2,1,2.7,1.7,4.4,1.7C149.5,124.3,152.5,121.3,152.5,117.4z"/>
	<path class="st1" d="M152.5,117.4c0-0.1,0-0.3,0-0.4c0-0.3-0.1-0.7-0.3-1.1c-0.1-0.2-0.1-0.4-0.2-0.6c-0.2-0.4-0.4-0.9-0.6-1.4
		c-0.4-0.7-0.8-1.5-1.3-2.4c-0.3-0.6-0.7-1.1-1.1-1.7c-1-1.5-2.1-3-3.3-4.5c-1.2,1.5-2.3,3-3.3,4.5c-0.4,0.6-0.8,1.2-1.1,1.7
		c-0.5,0.8-1,1.6-1.3,2.4c-0.2,0.5-0.5,1-0.6,1.4c-0.1,0.2-0.2,0.4-0.2,0.6c-0.1,0.4-0.2,0.8-0.3,1.1c0,0.2,0,0.3,0,0.4
		c0,0.2,0,0.4,0,0.6c0,0.4,0.1,0.9,0.3,1.3c0.1,0.2,0.1,0.4,0.2,0.6c0.2,0.4,0.4,0.8,0.6,1.2c0.1,0.2,0.3,0.4,0.4,0.5
		c0.3,0.4,0.6,0.7,0.9,1c1.2,1,2.7,1.7,4.4,1.7C149.5,124.3,152.5,121.3,152.5,117.4z"/>
</g>
</svg>
